<svg xmlns="http://www.w3.org/2000/svg" viewBox="0 0 96.76 96.76"><defs><style>.cls-1{fill:#ffb40e;}.cls-2{fill:#db4619;}.cls-3{fill:#f66631;}.cls-4{fill:#fae690;}.cls-5,.cls-6,.cls-9{fill:none;}.cls-5{stroke:#fff8e3;}.cls-5,.cls-6,.cls-7{stroke-linejoin:round;stroke-width:1.62px;}.cls-6{stroke:#f66631;}.cls-7{fill:#fff8e3;stroke:#093447;}.cls-8{fill:#e69e00;}</style></defs><title>prioritization-ch2</title><g id="Layer_2" data-name="Layer 2"><g id="hover_state" data-name="hover state"><path class="cls-1" d="M58.46,71.46V86.32H38.66V71.46Z"/><path class="cls-2" d="M46.7,91.94h3.71a3.72,3.72,0,0,0,3-1.49L56,87H41.13l2.6,3.47a3.7,3.7,0,0,0,3,1.49"/><path class="cls-3" d="M58.46,71.46V75H38.66V71.46Z"/><path class="cls-3" d="M58.46,77.63V81.2H38.66V77.63Z"/><path class="cls-3" d="M58.46,83.79v1.36a2.21,2.21,0,0,1-2.21,2.21H40.87a2.21,2.21,0,0,1-2.21-2.21V83.79Z"/><path class="cls-4" d="M25.16,40.89A24.21,24.21,0,0,1,46.45,19.6c.75,0,1.37-.12,2.11-.12a12.33,12.33,0,0,1,2.1.12A24.32,24.32,0,0,1,72,40.89a23.83,23.83,0,0,1-7.3,20,20.45,20.45,0,0,0-6.19,10.52H38.66a20.52,20.52,0,0,0-6.19-10.52,23.87,23.87,0,0,1-7.31-20"/><path class="cls-5" d="M49.51,24.62h-.87a6.55,6.55,0,0,0-.72.05c-.3,0-.64.06-1,.06A19.38,19.38,0,0,0,30.21,47.93"/><line class="cls-6" x1="48.56" y1="10.83" x2="48.56" y2="4.82"/><line class="cls-6" x1="71.5" y1="20.48" x2="75.74" y2="16.23"/><line class="cls-6" x1="80.89" y1="43.52" x2="86.9" y2="43.52"/><line class="cls-6" x1="71.24" y1="66.46" x2="75.49" y2="70.71"/><line class="cls-6" x1="25.27" y1="66.21" x2="21.02" y2="70.46"/><line class="cls-6" x1="15.87" y1="43.17" x2="9.86" y2="43.17"/><line class="cls-6" x1="25.52" y1="20.23" x2="21.27" y2="15.98"/><path class="cls-7" d="M46.07,71.71c-.28-8.91-7-15.16-7-22.78"/><path class="cls-7" d="M51.49,71.71c.27-8.91,7-15.16,7-22.78"/><polyline class="cls-7" points="41.13 48.93 43.14 48.93 44.3 47.05 46.33 50.34 48.56 47.05 50.64 50.34 52.52 47.05 54.58 50.16 55.42 48.88 56.85 48.91"/><polygon class="cls-2" points="58.46 75.03 51.62 75.03 53.95 71.47 58.46 71.47 58.46 75.03"/><polygon class="cls-2" points="58.46 81.19 51.49 81.19 53.95 77.63 58.46 77.63 58.46 81.19"/><path class="cls-2" d="M56.28,87.36H51.49L54,83.79h4.51v1.39A2.19,2.19,0,0,1,56.28,87.36Z"/><polygon class="cls-8" points="58.46 75.03 51.62 75.03 49.72 77.63 58.46 77.63 58.46 75.03"/><polygon class="cls-8" points="58.46 81.19 51.62 81.19 49.72 83.79 58.46 83.79 58.46 81.19"/><rect class="cls-9" width="96.76" height="96.76"/></g></g></svg>